<?xml version="1.0" ?><svg enable-background="new 0 0 64 64" id="Слой_1" version="1.1" viewBox="0 0 64 64" xml:space="preserve" xmlns="http://www.w3.org/2000/svg" xmlns:xlink="http://www.w3.org/1999/xlink"><g id="row_1"><g id="hangers"><path d="M14,14.5c-0.1,0-0.3,0-0.4-0.1l-2.8-2.8c-0.7-0.7-1-1.6-0.9-2.5c0.2-1.6-0.7-3.2-2.2-3.8    c-1.4-0.5-3.1-0.1-4,1.1C3,7.3,2.8,8.4,3.1,9.5c0.3,0.9,0.2,2-0.1,2.9c-0.1,0.3-0.4,0.4-0.6,0.3C2.1,12.6,2,12.3,2.1,12    c0.3-0.7,0.3-1.5,0.1-2.2c-0.4-1.4-0.1-2.9,0.8-4c1.2-1.5,3.4-2.1,5.2-1.4c2,0.8,3.1,2.8,2.8,4.8c-0.1,0.6,0.1,1.2,0.6,1.7    l2.8,2.8c0.2,0.2,0.2,0.5,0,0.7C14.3,14.5,14.1,14.5,14,14.5z" fill="#757575"/><rect fill="#FFCC80" height="70.7" transform="matrix(0.7071 0.7071 -0.7071 0.7071 33.9996 -14.0834)" width="2" x="33" y="-1.4"/><g><path d="M11.7,22.3c1,2.1,1,4.5,0.3,6.7L5.8,49.6c-0.1,0.4,0,0.8,0.3,1c0.4,0.4,0.6,1,0.5,1.5     c-0.1,0.6-0.6,1-1.1,1.1c-0.4,0.1-0.7,0.5-0.7,0.9c-0.1,2.2,0.5,4.5,1.8,6.3C7,61.1,7.5,61.6,8,62.2c0.5,0.6,1.6,0.4,1.7-0.4     L19,19l-5.7-5.7C10.9,15.8,10.4,19.4,11.7,22.3z" fill="#FFE082"/><path d="M62.2,8c-0.6-0.5-1.3-1-1.9-1.5c-1.8-1.3-4-1.8-6.1-1.7c-0.5,0-0.8,0.3-0.9,0.8c-0.1,0.5-0.5,0.9-1.1,1.1     c-0.6,0.1-1.2-0.1-1.5-0.5c-0.3-0.3-0.7-0.4-1-0.3L29,12c-2.2,0.7-4.6,0.6-6.7-0.3c-3-1.3-6.6-0.8-9,1.6L19,19l42.8-9.3     C62.6,9.5,62.8,8.5,62.2,8z" fill="#FFE0B2"/></g></g></g></svg>